# xmcd
#
# Track frame offsets:
#	150
#	15955
#	36914
#	49683
#	69340
#	81490
#	99335
#	114270
#	129954
#	150085
#	163058
#	178230
#	192636
#	204747
#	217314
#	228282
#	242978
#	262112
#	276804
#	294196
#
# Disc length: 4141 seconds
#
# Revision: 0
# Processed by: cddbd v1.5.1PL0 Copyright (c) Steve Scherf et al.
# Submitted via: dBpowerAMP V4.0
#
DISCID=1c102b14
DTITLE=Various Artist - V‰h‰n ennen..illan hitaat
DYEAR=2002
DGENRE=Finnish
TTITLE0=Muska - V‰h‰n ennen kyyneleit‰
TTITLE1=Jorma K‰‰ri‰inen - Bridge Over Troubled Water
TTITLE2=Reijo Taipale - Mustat enkelit
TTITLE3=Markku Suominen - H‰n
TTITLE4=Pepe Willberg - Olet rakkain
TTITLE5=Salomon - Muisto
TTITLE6=Eija Koriseva - Ikivanha tarina
TTITLE7=Petri Salminen - Samanlainen onni
TTITLE8=Pelimannet - On hetki
TTITLE9=Erno - Harha
TTITLE10=jorma K‰‰ri‰inen - Lady
TTITLE11=Juhani Markola - Eilinen
TTITLE12=Jarno Sarjanen - East Virginia
TTITLE13=P‰ivi M‰kinen - Balladi elokuvasta Klaani
TTITLE14=Tapio Heinonen - H‰n
TTITLE15=Mikko Alatalo - Viivy viel‰ hetki
TTITLE16=Salomon - Se koskee
TTITLE17=Pepe Willberg - Saat miehen kyyneliin
TTITLE18=Anja Niskanen - Saan nuori olla taas
TTITLE19=Tauski - Lintu pieni
EXTD=
EXTT0=
EXTT1=
EXTT2=
EXTT3=
EXTT4=
EXTT5=
EXTT6=
EXTT7=
EXTT8=
EXTT9=
EXTT10=
EXTT11=
EXTT12=
EXTT13=
EXTT14=
EXTT15=
EXTT16=
EXTT17=
EXTT18=
EXTT19=
PLAYORDER=
